<svg xmlns="http://www.w3.org/2000/svg"><symbol class="logo-main" viewBox="0 0 83.32 27.12"><defs><style>.cls-1{fill:#fff}</style></defs><title>logo-main</title><path class="cls-1" d="M.07 19.18A25.11 25.11 0 0 1 0 16.37L1.35 1.16h5L5 16.5c-.3 3.32 1 5.69 4.32 5.69s5.18-2.41 5.48-5.35l1.38-15.68h5l-1.4 15.48c-.56 6-4.51 10.42-10.9 10.42-5 0-8.2-3.22-8.81-7.88M22.3 14C23 6.73 27.87.68 36.38.68a11.68 11.68 0 0 1 6.54 1.89l-.57 6a7.36 7.36 0 0 0-6.45-3c-5.29 0-8.19 3.68-8.61 8.33s1.94 8.22 7.07 8.22a9.5 9.5 0 0 0 7.1-3.12l-.56 6.19a14.31 14.31 0 0 1-6.9 1.93c-8.42 0-12.28-6.25-11.67-13.09M46.89 1.16h5L50 21.81h9.77c0 .25-.45 4.77-.45 4.77H44.64zm25.87 9.47a6.8 6.8 0 0 0 .37-1.06h.08a5.79 5.79 0 0 0 .18 1.08c.28 1.15 2.21 7.58 2.21 7.58h-6.27s3.36-7.42 3.43-7.59M74 0h-.34L60.09 26.53h5.28l1.91-4h9.58l1.19 4h5.27z"/></symbol></svg>