<svg xmlns="http://www.w3.org/2000/svg" id="ucla-ioes-logo" viewBox="0 0 399.06 44">
  <defs>
    <style>
      .cls-2 { 
        fill: #fff;
      }

    </style>
  </defs>
  <path d="M99.95 5.87h1.21v9.65h-1.21V5.87zM103.89 9.46a2.61 2.61 0 012.21-1.08 2 2 0 01.34 0 2.1 2.1 0 012.09 2.09 1.28 1.28 0 010 .19v4.9h-1.09v-4.85c0-.9-.6-1.41-1.58-1.41h-.11a1.86 1.86 0 00-1.85 1.85v4.38h-1v-7h1v.94zM109.48 13.25h1.12c.15 1.22 1 1.55 2 1.55s1.62-.5 1.62-1.14c0-.79-.54-1-1.83-1.26s-2.6-.57-2.6-2.09c0-1.16.89-1.92 2.51-1.92a2.44 2.44 0 012.7 2.19h-1.15c-.11-.92-.61-1.33-1.65-1.33s-1.4.45-1.4 1c0 .76.67.91 1.87 1.15 1.41.29 2.58.6 2.58 2.2 0 1.41-1.14 2.12-2.75 2.12-1.89 0-3-.9-3.06-2.47zM115.69 8.54h1v-2.2h1.09v2.2h1.35v.89h-1.34V14c0 .48.26.65.7.65a2.35 2.35 0 00.59-.1v1a6.4 6.4 0 01-.88.09c-.89 0-1.54-.36-1.54-1.35V9.43h-1v-.89zM120.09 5.87h1.09v1.35h-1.09V5.87zm0 2.67h1.09v7h-1.09v-7zM122 8.54h1v-2.2h1.09v2.2h1.35v.89h-1.35V14c0 .48.26.65.71.65a2.27 2.27 0 00.58-.1v1a6.4 6.4 0 01-.88.09c-.89 0-1.54-.36-1.54-1.35V9.43h-1v-.89zM130.89 15.52v-1a2.45 2.45 0 01-2.11 1.12h-.19a2.17 2.17 0 01-2.16-2.16v-5h1.1v4.88a1.38 1.38 0 001.37 1.37h.19A1.83 1.83 0 00130.9 13a.61.61 0 000-.14V8.54h1.1v7h-1.09zM132.8 8.54h1v-2.2h1.09v2.2h1.35v.89h-1.35V14c0 .48.25.65.7.65a2.27 2.27 0 00.58-.1v1a6.4 6.4 0 01-.88.09c-.89 0-1.54-.36-1.54-1.35V9.43h-1l.05-.89zM136.62 12a2.62 2.62 0 010-.28 3.42 3.42 0 013.28-3.4c2.09 0 3.22 1.62 3.22 3.93h-5.42c.08 1.42.85 2.5 2.26 2.5a1.82 1.82 0 001.93-1.43H143a2.86 2.86 0 01-3 2.35 3.4 3.4 0 01-3.35-3.38 2.71 2.71 0 010-.29zm1.15-.57H142c-.07-1.39-.78-2.24-2-2.24a2.27 2.27 0 00-2.2 2.24zM146 12a2.35 2.35 0 010-.26 3.38 3.38 0 116.76 0 2.35 2.35 0 010 .26 2.17 2.17 0 010 .26 3.38 3.38 0 11-6.76 0 2.17 2.17 0 010-.26zm5.62 0c0-1.54-.75-2.77-2.24-2.77s-2.25 1.23-2.25 2.77.77 2.75 2.25 2.75 2.24-1.16 2.24-2.75zM153.08 8.54h1V7.42c0-1.2.68-1.64 1.85-1.64h.55v.93h-.35c-.7 0-1 .18-1 .74v1.07h1.3v.89h-1.3v6.09H154V9.43h-1v-.89zM159.19 8.54h1v-2.2h1.1v2.2h1.35v.89h-1.35V14c0 .48.26.65.7.65a2.27 2.27 0 00.58-.1v1a4.31 4.31 0 01-.88.09c-.89 0-1.54-.36-1.54-1.35V9.43h-1v-.89zM164.67 9.46a2.6 2.6 0 012.22-1.08 1.42 1.42 0 01.29 0 2.1 2.1 0 012.09 2.09 1.09 1.09 0 010 .18v4.9h-1.09v-4.84c0-.9-.6-1.41-1.58-1.41h-.07a1.85 1.85 0 00-1.85 1.85v4.37h-1.09V5.87h1.09v3.59zM170.29 12a2.44 2.44 0 010-.27 3.42 3.42 0 013.32-3.41c2.09 0 3.21 1.62 3.21 3.93h-5.4c.08 1.42.85 2.5 2.26 2.5a1.82 1.82 0 001.93-1.43h1.06a2.85 2.85 0 01-3 2.35 3.38 3.38 0 01-3.37-3.37V12zm1.15-.57h4.2c-.07-1.39-.78-2.24-2-2.24a2.3 2.3 0 00-2.2 2.24zM100.35 20.92h12.75v3h-9.21v3.88h8.09v2.83h-8.09v4.7h9.31v2.93h-12.85V20.92zM118.18 27.52h.07a4.06 4.06 0 013.69-2c2.57 0 4.29 1.94 4.29 4.66v8.12h-3.34v-7.67a1.55 1.55 0 000-.21 2.07 2.07 0 00-2.07-2.07h-.1A2.6 2.6 0 00118.2 31a2.35 2.35 0 000 .26v7.06h-3.3v-12.5h3.23v1.7zM126.67 25.82H130l2 6.45c.36 1.19.56 2 .56 2h.05s.17-.8.53-2l2-6.45h3.29l-4.33 12.44H131l-4.28-12.44zM139.42 20.92h3.3v3h-3.3v-3zm0 4.9h3.3v12.44h-3.3V25.82zM148 27.81c.75-1.41 1.6-2.13 3-2.13a2.06 2.06 0 01.78.09v2.86h-.08c-2.15-.22-3.71.92-3.71 3.54v6.06h-3.24V25.82H148v2zM152.35 32.05a6.5 6.5 0 116.5 6.5 6.53 6.53 0 01-6.5-6.5zm9.65 0c0-2.42-1.14-4.07-3.16-4.07s-3.15 1.65-3.15 4.07 1.12 4 3.15 4 3.16-1.57 3.16-4zM170.05 27.52h.08a4 4 0 013.68-2c2.57 0 4.29 1.94 4.29 4.66v8.12h-3.29v-7.67a1.55 1.55 0 000-.21 2.07 2.07 0 00-2.07-2.07h-.1a2.6 2.6 0 00-2.53 2.6 2.35 2.35 0 000 .26v7.06h-3.3V25.82h3.22v1.7zM180.13 25.82h3.18v1.68h.07a4 4 0 013.62-2 3.69 3.69 0 013.44 2.13 4.31 4.31 0 013.73-2.19c2.62 0 4.1 1.7 4.1 4.42v8.36H195v-7.77c0-1.4-.7-2.13-1.91-2.13-1.39 0-2.24 1.07-2.24 2.71v7.23h-3.29v-7.81c0-1.4-.71-2.13-1.92-2.13a2.43 2.43 0 00-2.26 2.68v7.23h-3.3V25.79zM199.74 32c0-3.69 2.5-6.55 6.14-6.55 4 0 6.13 3.06 6.13 7.49h-9c.25 1.92 1.31 3.11 3.18 3.11a2.34 2.34 0 002.4-1.53h3.25c-.46 2.21-2.43 4.07-5.63 4.07-4.14 0-6.47-2.88-6.47-6.59zm3.26-1.3h5.53v-.05A2.63 2.63 0 00206 28h-.06c-1.71 0-2.56 1-2.85 2.67zM216.72 27.52h.08a4 4 0 013.68-2c2.57 0 4.29 1.94 4.29 4.66v8.12h-3.29v-7.67a1.55 1.55 0 000-.21 2.07 2.07 0 00-2.07-2.07h-.1a2.6 2.6 0 00-2.53 2.6 2.35 2.35 0 000 .26v7.06h-3.3V25.82h3.22v1.7zM225.68 25.82h1.72v-3.88h3.22v3.88h2.14V28h-2.14v6.74a1.1 1.1 0 001.1 1.1h1.18v2.43h-2.06c-1.6 0-3.37-.63-3.37-3V28h-1.72l-.06-2.19zM237.89 33.8c0-2.47 1.58-4 3.84-5.17a5.21 5.21 0 01-1.46-3.58c0-2.26 1.79-4 4.49-4s4.53 1.6 4.53 4c0 2.14-1.24 3.2-3.1 4.17l2.3 3a11 11 0 00.68-2.81h2.93a12 12 0 01-1.65 5.36l2.74 3.54h-4l-.9-1.14a7.67 7.67 0 01-4.6 1.5c-3.8 0-5.8-2.16-5.8-4.87zm8.66 1.09l-3.18-4.15a3.37 3.37 0 00-2 3A2.24 2.24 0 00243.6 36h.17a4.29 4.29 0 002.81-1.06zm-1.84-7.56a2.46 2.46 0 001.45-2.26v-.12a1.36 1.36 0 10-2.72 0v.12a3.43 3.43 0 001.29 2.26zM258 32.9h3.45c.24 2.09 1.43 2.91 3.9 2.91 1.79 0 3.37-.63 3.37-2.23s-1.65-2-4.29-2.64c-3.11-.7-5.94-1.53-5.94-5.14 0-3.42 2.79-5.19 6.64-5.19s6.43 1.91 6.69 5.41h-3.37c-.19-1.75-1.55-2.62-3.34-2.62s-3.13.8-3.13 2c0 1.41 1.21 1.82 3.78 2.38 3.57.78 6.48 1.62 6.48 5.36 0 3.51-2.84 5.48-6.75 5.48-4.7 0-7.37-2.06-7.49-5.72zM281.89 38.26v-1.45h-.07a4 4 0 01-3.57 1.82c-2.77 0-4.32-1.77-4.32-4.49v-8.32h3.27v7.74c0 1.45.66 2.25 2.06 2.25a2.52 2.52 0 002.51-2.51V25.82h3.3v12.44zM286.42 34.24h3.05c.22 1.43 1.24 2.06 2.72 2.06s2.28-.56 2.28-1.43c0-1.19-1.58-1.31-3.27-1.65-2.24-.44-4.42-1-4.42-3.76s2.23-4 5.07-4c3.27 0 5.09 1.63 5.33 4.12h-3c-.14-1.33-1-1.81-2.4-1.81s-2.13.48-2.13 1.38c0 1.07 1.65 1.16 3.42 1.53 2.08.43 4.38 1 4.38 3.92 0 2.5-2.13 4-5.23 4-3.59 0-5.61-1.72-5.8-4.36zM298 25.82h1.72v-3.88h3.21v3.88H305V28h-2.13v6.62a.81.81 0 000 .16 1.09 1.09 0 001.13 1.1h1.15v2.42h-2.06c-1.6 0-3.37-.63-3.37-3V28H298v-2.18zM314 36.88c-.63.94-1.53 1.67-3.66 1.67-2.55 0-4.34-1.33-4.34-3.8 0-2.74 2.23-3.62 5-4 2.06-.29 3-.46 3-1.4s-.71-1.48-2.09-1.48c-1.55 0-2.3.56-2.4 1.74h-2.93c.09-2.18 1.72-4.09 5.36-4.09s5.23 1.67 5.23 4.58v6.33c0 .94.15 1.5.44 1.72v.12h-3.18a3.42 3.42 0 01-.43-1.39zm0-3V32a9.61 9.61 0 01-2.3.72c-1.73.39-2.57.78-2.57 1.94s.77 1.58 1.94 1.58c1.91 0 2.95-1.16 2.95-2.38zM319.21 20.92h3.29v3h-3.29v-3zm0 4.9h3.29v12.44h-3.29V25.82zM327.8 27.52h.09a4.06 4.06 0 013.69-2c2.57 0 4.29 1.94 4.29 4.66v8.12h-3.3v-7.67a1.55 1.55 0 000-.21 2.07 2.07 0 00-2.07-2.07h-.1a2.6 2.6 0 00-2.53 2.6 2.18 2.18 0 000 .25v7.06h-3.27V25.82h3.22v1.7zM345.3 36.88h-.05c-.63.94-1.53 1.67-3.66 1.67-2.55 0-4.34-1.33-4.34-3.8 0-2.74 2.23-3.62 5-4 2.06-.29 3-.46 3-1.4s-.71-1.48-2.09-1.48c-1.55 0-2.3.56-2.4 1.74h-2.93c.09-2.18 1.72-4.09 5.36-4.09s5.23 1.67 5.23 4.58v6.33c0 .94.15 1.5.44 1.72v.12h-3.18a3.56 3.56 0 01-.38-1.39zm0-3V32a9.75 9.75 0 01-2.3.72c-1.73.39-2.57.78-2.57 1.94s.77 1.58 1.94 1.58c1.91 0 2.95-1.16 2.95-2.38zM353.7 36.71h-.05v1.55h-3.18V20.92h3.3v6.41h.12a3.89 3.89 0 013.47-1.85c3.13 0 5.36 2.69 5.36 6.57s-2.18 6.58-5.31 6.58a4.16 4.16 0 01-3.71-1.92zm5.62-4.66c0-2.3-.92-3.9-2.76-3.9-2.09 0-2.86 1.67-2.86 4s1.14 3.73 3 3.73 2.62-1.43 2.62-3.83zM364.22 20.92h3.29v3h-3.29v-3zm0 4.9h3.29v12.44h-3.29V25.82zM369.6 20.92h3.29v17.34h-3.3l.01-17.34zM375 20.92h3.3v3H375v-3zm0 4.9h3.3v12.44H375V25.82zM379.4 25.82h1.72v-3.88h3.22v3.88h2.14V28h-2.14v6.62a.76.76 0 000 .15 1.11 1.11 0 001.1 1.1h1.15v2.43h-2.06c-1.6 0-3.37-.63-3.37-3V28h-1.72v-2.19zM388.48 39.74h1.16c1.31 0 1.85-.68 1.85-1.7a11 11 0 00-1-3.37l-3.35-8.85h3.47l1.84 5.6c.39 1.14.81 2.72.81 2.72s.34-1.58.73-2.72l1.75-5.6h3.32l-4.25 12.81c-.95 2.76-1.87 3.75-4.39 3.75h-1.94v-2.64z"/>
  <path fill="#2774ae" fill-rule="evenodd" d="M92 0H0v44h92V0z"/>
  <path d="M14.71 26.23a20.55 20.55 0 010-2.22l1-12h3.85l-1 12.1c-.23 2.62.78 4.48 3.34 4.48s4-1.9 4.24-4.22l1-12.37H31l-1 12.22c-.42 4.71-3.48 8.23-8.43 8.23-3.85 0-6.34-2.55-6.81-6.22M31.9 22.17c.51-5.76 4.32-10.53 10.89-10.53a8.85 8.85 0 015.06 1.49l-.44 4.76a5.64 5.64 0 00-5-2.37c-4.1 0-6.34 2.9-6.66 6.57s1.49 6.48 5.46 6.48a7.26 7.26 0 005.49-2.47l-.4 4.9a11 11 0 01-5.37 1.5c-6.51 0-9.49-4.93-9-10.32M50.93 12h3.84l-1.41 16.3h7.51c0 .2-.35 3.77-.35 3.77H49.18L50.93 12zM70.93 19.49a4.9 4.9 0 00.29-.84h.06a4.09 4.09 0 00.15.85c.21.91 1.7 6 1.7 6h-4.85s2.6-5.85 2.65-6m1-8.39h-.27L61.14 32h4.08l1.48-3.18h7.4L75 32h4.1l-7.17-20.89z" class="cls-2"/>
</svg>
